[Header]
FileType HTR
DataType HTRS
FileVersion 1
NumSegments 22
NumFrames 7
DataFrameRate 24
EulerRotationOrder ZYX
CalibrationUnits mm
RotationUnits Degrees
GlobalAxisofGravity Y
BoneLengthAxis Y
ScaleFactor 1.0
[SegmentNames&Hierarchy]
reference	GLOBAL
Hips	reference
Spine	Hips
Spine1	Spine
Neck	Spine1
Head	Neck
LeftShoulder	Spine1
LeftArm	LeftShoulder
LeftForeArm	LeftArm
LeftHand	LeftForeArm
RightShoulder	Spine1
RightArm	RightShoulder
RightForeArm	RightArm
RightHand	RightForeArm
LeftUpLeg	Hips
LeftLeg	LeftUpLeg
LeftFoot	LeftLeg
LeftToeBase	LeftFoot
RightUpLeg	Hips
RightLeg	RightUpLeg
RightFoot	RightLeg
RightToeBase	RightFoot
[BasePosition]
reference	0	0	0	0	0	0	1
Hips	0	0	0	0	0	0	1
Spine	0	0	0	0	-0	90	1
Spine1	0	0	0	0	0	0	1
Neck	0	0	0	-7.352430803	-7.352430803	90	1
Head	0	0	0	0	-0	90	1
LeftShoulder	0	0	0	0	0	0	1
LeftArm	0	0	0	0	0	0	1
LeftForeArm	0	0	0	0	0	0	1
LeftHand	0	0	0	0	0	0	1
RightShoulder	0	0	0	0	-0	180	1
RightArm	0	0	0	0	-0	180	1
RightForeArm	0	0	0	0	-0	180	1
RightHand	0	0	0	0	-0	180	1
LeftUpLeg	0	0	0	0	-0	-90	1
LeftLeg	0	0	0	0	-0	-90	1
LeftFoot	0	0	0	66.57150701	-66.57150701	-90	1
LeftToeBase	0	0	0	0	-90	0	1
RightUpLeg	0	0	0	0	-0	-90	1
RightLeg	0	0	0	0	-0	-90	1
RightFoot	0	0	0	66.57150701	-66.57150701	-90	1
RightToeBase	0	0	0	0	-90	0	1
[reference]
48	0	0	0	0	-0	0	1.0
49	0	0	0	0	-0	0	1.0
50	0	0	0	0	-0	0	1.0
51	0	0	0	0	-0	0	1.0
52	0	0	0	0	-0	0	1.0
53	0	0	0	0	-0	0	1.0
54	0	0	0	0	-0	0	1.0
[Hips]
48	5.395051956	8.588635445	-2.58065176	-176.7531128	-112.0275421	181.001709	1.0
49	5.625669956	8.559970856	-2.722519875	-174.9334259	-110.7770996	178.2866516	1.0
50	5.829237938	8.538194656	-2.846188784	-174.999176	-109.5682678	178.8109589	1.0
51	6.001939774	8.567822456	-2.968245745	-176.7813416	-109.4023895	180.3717499	1.0
52	6.142453194	8.650194168	-3.10145402	-176.7610779	-108.3998566	180.2151794	1.0
53	6.266787529	8.75031662	-3.230302095	-176.1461639	-107.3915024	179.5653687	1.0
54	6.385021687	8.776729584	-3.367763996	-174.6008759	-107.055397	178.5685577	1.0
[Spine]
48	0	0.7478299737	0	-4.945518494	-7.559210777	-92.13713837	1.0
49	0	0.7478299737	0	-4.690879345	-5.996613026	-91.01544189	1.0
50	0	0.7478299737	0	-6.304763794	-4.412610531	-90.67362976	1.0
51	0	0.7478299737	0	-6.342345238	-3.215273857	-90.76512146	1.0
52	0	0.7478299737	0	-6.337151051	-1.229413033	-90.42160797	1.0
53	0	0.7478299737	0	-6.911996841	0.6764938831	-90.26543427	1.0
54	0	0.7478299737	0	-8.494081497	2.07370615	-90.18092346	1.0
[Spine1]
48	0	2.049309969	0	4.768694401	-2.477530956	-0.40731287	1.0
49	0	2.049309969	0	6.547218323	-1.911043167	-1.27475369	1.0
50	0	2.049309969	0	8.549555779	-1.317024946	-1.904719114	1.0
51	0	2.049309969	0	8.144906998	-0.8825067878	-2.837083101	1.0
52	0	2.049309969	0	7.180476665	-0.2314610779	-2.824725628	1.0
53	0	2.049309969	0	6.815209389	0.3806069493	-2.546008587	1.0
54	0	2.049309969	0	6.868330002	0.8059639931	-2.003041744	1.0
[Neck]
48	0	2.231709957	0	-8.719778061	-0.1222703606	-85.83528137	1.0
49	0	2.231709957	0	-9.662021637	-0.2324360311	-85.35842133	1.0
50	0	2.231709957	0	-10.05477047	-0.4895179868	-85.28903961	1.0
51	0	2.231709957	0	-8.836601257	-0.9872680902	-85.62787628	1.0
52	0	2.231709957	0	-7.677749634	-1.523326874	-86.11199188	1.0
53	0	2.231709957	0	-6.93282938	-1.902433515	-86.66192627	1.0
54	0	2.231709957	0	-6.425105095	-2.231093884	-87.43789673	1.0
[Head]
48	0	1.413589954	0.1823999882	-5.148421288	-8.023569107	-86.87493896	1.0
49	0	1.413589954	0.1823999882	-5.405060768	-8.171402931	-86.98019409	1.0
50	0	1.413589954	0.1823999882	-5.154892921	-8.390171051	-87.94045258	1.0
51	0	1.413589954	0.1823999882	-5.094945908	-8.842865944	-87.88191223	1.0
52	0	1.413589954	0.1823999882	-4.722130775	-9.330601692	-88.11338043	1.0
53	0	1.413589954	0.1823999882	-4.757787704	-9.704562187	-87.91999054	1.0
54	0	1.413589954	0.1823999882	-4.956074238	-10.04293156	-87.64741516	1.0
[LeftShoulder]
48	0.3649300039	1.825889945	-0.04271000251	-12.91219902	-11.27663708	4.116602421	1.0
49	0.3649300039	1.825889945	-0.04271000251	-12.91690731	-10.35965347	2.646529198	1.0
50	0.3649300039	1.825889945	-0.04271000251	-12.88015652	-8.720351219	1.194915533	1.0
51	0.3649300039	1.825889945	-0.04271000251	-11.79746914	-8.167196274	0.6948212385	1.0
52	0.3649300039	1.825889945	-0.04271000251	-11.79541111	-8.435258865	1.179249763	1.0
53	0.3649300039	1.825889945	-0.04271000251	-10.73297882	-8.794273376	1.872907758	1.0
54	0.3649300039	1.825889945	-0.04271000251	-9.697067261	-8.57796669	4.071306229	1.0
[LeftArm]
48	1.24003005	0	0	51.78115845	0.2854383886	-75.13870239	1.0
49	1.24003005	0	0	47.30831528	1.891330838	-77.94799805	1.0
50	1.24003005	0	0	43.35165405	2.971257925	-80.51330566	1.0
51	1.24003005	0	0	39.39099503	4.922655106	-80.80133057	1.0
52	1.24003005	0	0	33.84616089	8.349372864	-78.639328	1.0
53	1.24003005	0	0	26.51266861	11.85236645	-75.32623291	1.0
54	1.24003005	0	0	19.277668	16.13576508	-73.1505661	1.0
[LeftForeArm]
48	2.847419977	0	0	-12.77568054	-60.50789642	13.4183197	1.0
49	2.847419977	0	0	-10.13352585	-46.63496399	9.880320549	1.0
50	2.847419977	0	0	-8.997974396	-30.62005806	7.037732601	1.0
51	2.847419977	0	0	-10.12823296	-17.99975586	3.490091085	1.0
52	2.847419977	0	0	-10.98100853	-8.849357605	-3.525119305	1.0
53	2.847419977	0	0	-9.018215179	-1.631355762	-8.097561836	1.0
54	2.847419977	0	0	-5.164164066	1.695005536	-10.53481483	1.0
[LeftHand]
48	2.258270025	0	0	-4.306221962	-11.09367371	-6.412146091	1.0
49	2.258270025	0	0	-5.796571732	-11.01272488	-0.7215131521	1.0
50	2.258270025	0	0	-7.675169468	-9.825242996	7.025657177	1.0
51	2.258270025	0	0	-9.90831852	-4.12333107	9.246953011	1.0
52	2.258270025	0	0	-11.19943237	1.276775718	4.554615974	1.0
53	2.258270025	0	0	-9.238262177	3.289744616	-3.743006229	1.0
54	2.258270025	0	0	-5.177641392	4.373558521	-4.417982101	1.0
[RightShoulder]
48	-0.3646599948	1.825889945	-0.04271000251	-4.275631428	5.612348557	-182.0261993	1.0
49	-0.3646599948	1.825889945	-0.04271000251	-5.142903805	6.094837666	-180.9124603	1.0
50	-0.3646599948	1.825889945	-0.04271000251	-6.946649551	6.315164566	-180.5155487	1.0
51	-0.3646599948	1.825889945	-0.04271000251	-7.715189934	6.735638142	-180.0242004	1.0
52	-0.3646599948	1.825889945	-0.04271000251	-7.981105328	7.245260239	-179.894165	1.0
53	-0.3646599948	1.825889945	-0.04271000251	-8.548779488	8.029500008	-180.3843384	1.0
54	-0.3646599948	1.825889945	-0.04271000251	-10.61568928	8.964252472	-181.7978363	1.0
[RightArm]
48	-1.24003005	0	0	27.88041687	-12.22727489	-111.605217	1.0
49	-1.24003005	0	0	33.86803436	-9.101691246	-108.0581512	1.0
50	-1.24003005	0	0	40.6283493	-5.895628929	-104.37883	1.0
51	-1.24003005	0	0	47.94232941	-2.80140686	-101.0701218	1.0
52	-1.24003005	0	0	56.22759628	1.007696152	-99.64309692	1.0
53	-1.24003005	0	0	64.96696472	5.868658543	-100.0828171	1.0
54	-1.24003005	0	0	70.81919861	9.945206642	-100.7980347	1.0
[RightForeArm]
48	-2.847419977	0	0	12.35683632	7.212663174	189.4017639	1.0
49	-2.847419977	0	0	8.040504456	9.00540638	186.219223	1.0
50	-2.847419977	0	0	4.196127892	10.86288071	183.0633545	1.0
51	-2.847419977	0	0	0.7342438698	13.69811726	178.4986572	1.0
52	-2.847419977	0	0	-0.4184800982	18.45339775	175.5476837	1.0
53	-2.847419977	0	0	2.497927666	25.15929604	175.130188	1.0
54	-2.847419977	0	0	8.229195595	33.20727158	176.3819733	1.0
[RightHand]
48	-2.258270025	0	0	11.62147903	3.739455462	175.7327881	1.0
49	-2.258270025	0	0	7.367546558	5.16021204	175.9480743	1.0
50	-2.258270025	0	0	3.556166887	6.346071243	173.669693	1.0
51	-2.258270025	0	0	0.4154876471	7.025152206	171.7826996	1.0
52	-2.258270025	0	0	-0.3980688155	7.960932732	169.8491516	1.0
53	-2.258270025	0	0	2.345367908	10.03624725	165.9667206	1.0
54	-2.258270025	0	0	7.62414217	12.21638012	164.3573608	1.0
[LeftUpLeg]
48	0.9119900465	0	0	-7.879170418	-1.679511309	87.6776123	1.0
49	0.9119900465	0	0	-10.37567616	2.999230623	88.20074463	1.0
50	0.9119900465	0	0	-12.69462013	3.433847904	88.19207764	1.0
51	0.9119900465	0	0	-12.63586044	2.323499203	88.27317047	1.0
52	0.9119900465	0	0	-11.27872372	3.767804146	88.65750122	1.0
53	0.9119900465	0	0	-8.974671364	5.038871288	88.46408844	1.0
54	0.9119900465	0	0	-7.373300552	5.284072876	88.7248764	1.0
[LeftLeg]
48	0	-4.371409893	0	25.44780731	-0.1020527184	82.4302063	1.0
49	0	-4.371409893	0	28.99179268	-1.997685909	82.78794861	1.0
50	0	-4.371409893	0	29.62337112	-2.843227386	81.98687744	1.0
51	0	-4.371409893	0	26.87515259	-1.338917375	82.3293457	1.0
52	0	-4.371409893	0	21.94953156	-2.255651236	82.91758728	1.0
53	0	-4.371409893	0	14.79430389	0.6070976853	85.84851837	1.0
54	0	-4.371409893	0	7.714115143	0.9477789998	86.89588165	1.0
[LeftFoot]
48	0	-3.918009996	0	-105.8306885	111.472702	-53.11347961	1.0
49	0	-3.918009996	0	-110.3660965	112.5729294	-55.43630219	1.0
50	0	-3.918009996	0	-105.1530838	113.5154877	-49.97677612	1.0
51	0	-3.918009996	0	-103.5870667	113.4206543	-50.99477768	1.0
52	0	-3.918009996	0	-100.4206009	113.6899033	-51.16486359	1.0
53	0	-3.918009996	0	-104.3008957	112.3088684	-60.48653412	1.0
54	0	-3.918009996	0	-99.96572876	112.2748489	-61.27784729	1.0
[LeftToeBase]
48	0	-0.5927900076	1.367989898	0	0	0	1.0
49	0	-0.5927900076	1.367989898	0	0	0	1.0
50	0	-0.5927900076	1.367989898	0	0	0	1.0
51	0	-0.5927900076	1.367989898	0	0	0	1.0
52	0	-0.5927900076	1.367989898	0	0	0	1.0
53	0	-0.5927900076	1.367989898	0	0	0	1.0
54	0	-0.5927900076	1.367989898	0	0	0	1.0
[RightUpLeg]
48	-0.9119900465	0	0	-24.31886101	-3.528770924	97.37664795	1.0
49	-0.9119900465	0	0	-27.16148949	0.5616123676	97.39027405	1.0
50	-0.9119900465	0	0	-29.29974174	0.6178711057	97.28858948	1.0
51	-0.9119900465	0	0	-27.97502518	-0.9110171199	96.33346558	1.0
52	-0.9119900465	0	0	-24.37705231	-2.825125694	96.16013336	1.0
53	-0.9119900465	0	0	-19.36434555	-6.181223869	95.8947525	1.0
54	-0.9119900465	0	0	-14.12235069	-9.24253273	94.74798584	1.0
[RightLeg]
48	0	-4.371409893	0	16.87368202	6.335576057	84.64945221	1.0
49	0	-4.371409893	0	29.42557526	6.819541454	82.5670166	1.0
50	0	-4.371409893	0	39.97793198	5.884038448	79.35575867	1.0
51	0	-4.371409893	0	46.84499359	6.634285927	78.39035034	1.0
52	0	-4.371409893	0	49.37870789	7.148106575	77.47363281	1.0
53	0	-4.371409893	0	48.30714417	7.49550581	76.5251236	1.0
54	0	-4.371409893	0	45.53144455	6.426820755	76.51847076	1.0
[RightFoot]
48	0	-3.918009996	0	64.99606323	54.14769745	96.64892578	1.0
49	0	-3.918009996	0	56.26486588	53.64909744	92.84923553	1.0
50	0	-3.918009996	0	48.83044815	55.25152588	88.3714447	1.0
51	0	-3.918009996	0	42.40301895	55.5561676	82.9229126	1.0
52	0	-3.918009996	0	41.17280579	56.42710876	80.4174118	1.0
53	0	-3.918009996	0	38.99437332	57.69542313	76.91996765	1.0
54	0	-3.918009996	0	44.00428772	58.10653305	77.97652435	1.0
[RightToeBase]
48	0	-0.5927900076	1.367989898	0	0	0	1.0
49	0	-0.5927900076	1.367989898	0	0	0	1.0
50	0	-0.5927900076	1.367989898	0	0	0	1.0
51	0	-0.5927900076	1.367989898	0	0	0	1.0
52	0	-0.5927900076	1.367989898	0	0	0	1.0
53	0	-0.5927900076	1.367989898	0	0	0	1.0
54	0	-0.5927900076	1.367989898	0	0	0	1.0
[EndOfFile]
